# xmcd
#
# Track frame offsets: 
#        150
#        16936
#        35096
#        48009
#        66076
#        83835
#        99328
#        116191
#        135767
#        152649
#        173100
#
# Disc length: 2521 seconds
#
# Revision: 0
# Processed by: cddbd v1.5.2PL0 Copyright (c) Steve Scherf et al.
# Submitted via: ExactAudioCopy v0.95a5
#
DISCID=7f09d70b
DTITLE=Five.Bolt.Main - Live
DYEAR=2008
DGENRE=Rock
TTITLE0=Slip
TTITLE1=Pathetic
TTITLE2=The Gift
TTITLE3=Seem To Be Fine
TTITLE4=Just My Luck
TTITLE5=What You Are
TTITLE6=Broken Compass
TTITLE7=Only The Strong
TTITLE8=Made Like This
TTITLE9=Wait In Line
TTITLE10=Breathing
EXTD=
EXTT0=
EXTT1=
EXTT2=
EXTT3=
EXTT4=
EXTT5=
EXTT6=
EXTT7=
EXTT8=
EXTT9=
EXTT10=
PLAYORDER=
